<svg id="svg" version="1.1" xmlns="http://www.w3.org/2000/svg" xmlns:xlink="http://www.w3.org/1999/xlink" width="400" height="400" viewBox="0, 0, 400,400"><g id="svgg"><path id="path0" d="M108.200 75.634 C 88.991 80.304,81.247 101.319,93.462 115.629 C 112.670 138.132,147.310 115.112,134.322 88.476 C 131.978 83.669,123.939 76.800,120.658 76.800 C 120.322 76.800,119.948 76.639,119.826 76.442 C 119.323 75.628,110.692 75.028,108.200 75.634 M87.600 225.000 L 87.600 312.400 112.400 312.400 L 137.200 312.400 137.200 225.000 L 137.200 137.600 112.400 137.600 L 87.600 137.600 87.600 225.000 M162.800 225.000 L 162.800 312.400 187.600 312.400 L 212.400 312.400 212.400 259.806 C 212.400 205.005,212.373 205.920,214.125 201.200 C 217.438 192.278,225.867 187.200,237.367 187.200 C 242.764 187.200,249.075 188.637,251.662 190.454 C 252.246 190.864,252.876 191.202,253.062 191.204 C 254.642 191.224,259.819 198.043,261.107 201.800 C 262.774 206.663,262.800 207.559,262.800 260.933 L 262.800 312.400 287.621 312.400 L 312.442 312.400 312.253 260.900 C 312.075 212.468,311.893 203.836,310.832 193.800 C 310.201 187.828,308.803 180.025,307.608 175.800 C 307.359 174.920,307.006 173.660,306.825 173.000 C 301.262 152.770,287.104 140.768,266.000 138.391 C 259.082 137.613,254.217 137.487,249.050 137.956 C 238.114 138.947,233.901 139.865,227.800 142.588 C 220.889 145.673,216.532 150.636,214.050 158.249 C 212.499 163.007,212.400 162.471,212.400 149.333 L 212.400 137.600 187.600 137.600 L 162.800 137.600 162.800 225.000 " stroke="none" fill="#fbfbfb" fill-rule="evenodd"></path><path id="path1" d="M178.300 0.275 C 176.375 0.361,174.800 0.604,174.800 0.816 C 174.800 1.027,173.461 1.200,171.824 1.200 C 170.187 1.200,168.736 1.380,168.600 1.600 C 168.464 1.820,167.463 2.000,166.376 2.000 C 165.289 2.000,164.400 2.180,164.400 2.400 C 164.400 2.620,163.410 2.800,162.200 2.800 C 160.990 2.800,160.000 2.980,160.000 3.200 C 160.000 3.420,159.201 3.600,158.224 3.600 C 157.247 3.600,156.336 3.780,156.200 4.000 C 156.064 4.220,155.243 4.400,154.376 4.400 C 153.509 4.400,152.800 4.580,152.800 4.800 C 152.800 5.020,152.181 5.200,151.424 5.200 C 150.667 5.200,149.936 5.380,149.800 5.600 C 149.664 5.820,148.833 6.000,147.953 6.000 C 146.988 6.000,146.451 6.159,146.600 6.400 C 146.747 6.638,146.271 6.800,145.424 6.800 C 144.641 6.800,144.000 6.980,144.000 7.200 C 144.000 7.420,143.370 7.600,142.600 7.600 C 141.830 7.600,141.200 7.780,141.200 8.000 C 141.200 8.220,140.771 8.400,140.246 8.400 C 139.353 8.400,136.003 9.289,134.200 10.005 C 133.760 10.179,132.320 10.714,131.000 11.193 C 129.680 11.672,128.287 12.230,127.905 12.432 C 127.523 12.634,126.848 12.800,126.405 12.800 C 125.962 12.800,125.600 12.980,125.600 13.200 C 125.600 13.420,125.240 13.600,124.800 13.600 C 124.360 13.600,124.000 13.747,124.000 13.928 C 124.000 14.108,123.100 14.500,122.000 14.800 C 120.900 15.100,120.000 15.492,120.000 15.672 C 120.000 15.853,119.640 16.000,119.200 16.000 C 118.760 16.000,118.400 16.180,118.400 16.400 C 118.400 16.620,118.040 16.800,117.600 16.800 C 117.160 16.800,116.800 16.947,116.800 17.128 C 116.800 17.308,115.908 17.698,114.818 17.995 C 113.728 18.292,112.929 18.684,113.042 18.867 C 113.155 19.050,112.776 19.200,112.200 19.200 C 111.604 19.200,111.259 19.372,111.400 19.600 C 111.536 19.820,111.402 20.000,111.103 20.000 C 110.349 20.000,108.407 20.935,108.403 21.300 C 108.401 21.465,108.040 21.600,107.600 21.600 C 107.160 21.600,106.799 21.735,106.797 21.900 C 106.793 22.280,104.842 23.198,104.020 23.206 C 103.474 23.212,103.471 23.258,104.000 23.600 C 104.485 23.914,104.428 23.989,103.700 23.994 C 103.205 23.997,102.800 24.180,102.800 24.400 C 102.800 24.620,102.524 24.800,102.187 24.800 C 101.419 24.800,97.447 26.779,97.267 27.251 C 97.193 27.443,96.956 27.600,96.739 27.600 C 96.522 27.600,95.559 28.140,94.600 28.800 C 93.641 29.460,92.729 30.000,92.575 30.000 C 92.420 30.000,92.003 30.316,91.647 30.703 C 91.291 31.089,90.505 31.660,89.900 31.970 C 89.295 32.281,88.800 32.685,88.800 32.868 C 88.800 33.050,88.480 33.200,88.088 33.200 C 87.697 33.200,87.117 33.560,86.800 34.000 C 86.483 34.440,85.991 34.800,85.708 34.800 C 85.425 34.800,84.628 35.340,83.937 36.000 C 83.246 36.660,82.478 37.200,82.229 37.200 C 81.980 37.200,81.517 37.560,81.200 38.000 C 80.883 38.440,80.375 38.800,80.072 38.800 C 79.769 38.800,79.017 39.340,78.400 40.000 C 77.783 40.660,77.164 41.200,77.023 41.200 C 76.752 41.200,76.352 41.514,74.349 43.300 C 73.671 43.905,72.993 44.400,72.842 44.400 C 72.692 44.400,71.586 45.324,70.385 46.454 C 69.183 47.583,67.570 48.978,66.800 49.554 C 66.030 50.129,63.828 52.220,61.906 54.200 C 57.695 58.540,58.540 57.695,54.200 61.906 C 52.220 63.828,50.120 66.043,49.534 66.828 C 48.948 67.614,47.463 69.303,46.234 70.582 C 45.005 71.861,44.000 73.071,44.000 73.272 C 44.000 73.472,43.595 74.070,43.100 74.599 C 41.731 76.063,41.200 76.740,41.200 77.023 C 41.200 77.164,40.660 77.783,40.000 78.400 C 39.340 79.017,38.800 79.769,38.800 80.072 C 38.800 80.375,38.440 80.883,38.000 81.200 C 37.560 81.517,37.200 82.107,37.200 82.512 C 37.200 82.916,37.020 83.136,36.800 83.000 C 36.580 82.864,36.400 82.994,36.400 83.288 C 36.400 83.583,36.040 84.083,35.600 84.400 C 35.160 84.717,34.800 85.257,34.800 85.600 C 34.800 85.943,34.440 86.483,34.000 86.800 C 33.560 87.117,33.200 87.657,33.200 88.000 C 33.200 88.343,32.850 88.876,32.421 89.185 C 31.993 89.493,31.727 89.881,31.829 90.047 C 31.931 90.213,31.607 90.765,31.108 91.274 C 30.608 91.783,29.930 92.740,29.600 93.400 C 29.270 94.060,28.685 94.949,28.300 95.375 C 27.915 95.802,27.600 96.372,27.600 96.642 C 27.600 96.912,27.458 97.193,27.284 97.267 C 26.825 97.460,24.800 101.476,24.800 102.193 C 24.800 102.527,24.620 102.800,24.400 102.800 C 24.180 102.800,23.997 103.205,23.994 103.700 C 23.989 104.428,23.914 104.485,23.600 104.000 C 23.258 103.471,23.212 103.474,23.206 104.020 C 23.198 104.842,22.280 106.793,21.900 106.797 C 21.735 106.799,21.600 107.160,21.600 107.600 C 21.600 108.040,21.465 108.401,21.300 108.403 C 20.935 108.407,20.000 110.349,20.000 111.103 C 20.000 111.402,19.820 111.536,19.600 111.400 C 19.380 111.264,19.200 111.523,19.200 111.976 C 19.200 112.429,19.020 112.800,18.800 112.800 C 18.580 112.800,18.399 113.115,18.399 113.500 C 18.398 113.885,18.038 114.789,17.599 115.510 C 17.159 116.230,16.800 117.175,16.800 117.610 C 16.800 118.044,16.620 118.400,16.400 118.400 C 16.180 118.400,16.000 118.760,16.000 119.200 C 16.000 119.640,15.820 120.000,15.600 120.000 C 15.380 120.000,15.200 120.360,15.200 120.800 C 15.200 121.240,15.059 121.600,14.887 121.600 C 14.715 121.600,14.534 122.095,14.484 122.700 C 14.434 123.305,14.215 123.860,13.997 123.933 C 13.778 124.007,13.600 124.412,13.600 124.833 C 13.600 125.255,13.420 125.600,13.200 125.600 C 12.980 125.600,12.800 126.039,12.800 126.576 C 12.800 127.113,12.620 127.664,12.400 127.800 C 12.180 127.936,12.000 128.315,12.000 128.643 C 12.000 128.971,11.640 129.984,11.200 130.894 C 10.760 131.805,10.400 132.789,10.400 133.081 C 10.400 133.372,10.240 133.923,10.043 134.305 C 9.486 135.391,8.400 139.376,8.400 140.335 C 8.400 140.811,8.220 141.200,8.000 141.200 C 7.780 141.200,7.600 141.830,7.600 142.600 C 7.600 143.370,7.420 144.000,7.200 144.000 C 6.980 144.000,6.800 144.641,6.800 145.424 C 6.800 146.271,6.638 146.747,6.400 146.600 C 6.158 146.451,6.000 146.996,6.000 147.976 C 6.000 148.869,5.820 149.600,5.600 149.600 C 5.380 149.600,5.200 150.320,5.200 151.200 C 5.200 152.080,5.020 152.800,4.800 152.800 C 4.580 152.800,4.400 153.509,4.400 154.376 C 4.400 155.243,4.220 156.064,4.000 156.200 C 3.780 156.336,3.600 157.247,3.600 158.224 C 3.600 159.201,3.420 160.000,3.200 160.000 C 2.980 160.000,2.800 160.900,2.800 162.000 C 2.800 163.100,2.620 164.000,2.400 164.000 C 2.174 164.000,2.000 165.133,2.000 166.600 C 2.000 168.067,1.826 169.200,1.600 169.200 C 1.376 169.200,1.200 170.307,1.200 171.720 C 1.200 173.203,0.994 174.446,0.700 174.740 C 0.311 175.129,0.200 180.743,0.200 200.087 C 0.200 219.608,0.307 224.969,0.700 225.100 C 1.036 225.212,1.200 226.176,1.200 228.033 C 1.200 229.611,1.372 230.800,1.600 230.800 C 1.826 230.800,2.000 231.933,2.000 233.400 C 2.000 234.867,2.174 236.000,2.400 236.000 C 2.620 236.000,2.800 236.799,2.800 237.776 C 2.800 238.753,2.980 239.664,3.200 239.800 C 3.420 239.936,3.600 240.836,3.600 241.800 C 3.600 242.764,3.780 243.664,4.000 243.800 C 4.220 243.936,4.400 244.757,4.400 245.624 C 4.400 246.491,4.580 247.200,4.800 247.200 C 5.020 247.200,5.200 247.920,5.200 248.800 C 5.200 249.680,5.380 250.400,5.600 250.400 C 5.820 250.400,6.000 251.131,6.000 252.024 C 6.000 253.004,6.158 253.549,6.400 253.400 C 6.638 253.253,6.800 253.729,6.800 254.576 C 6.800 255.359,6.980 256.000,7.200 256.000 C 7.420 256.000,7.600 256.630,7.600 257.400 C 7.600 258.170,7.780 258.800,8.000 258.800 C 8.220 258.800,8.400 259.229,8.400 259.754 C 8.400 260.778,9.440 264.553,10.037 265.695 C 10.237 266.077,10.400 266.752,10.400 267.195 C 10.400 267.638,10.547 268.000,10.728 268.000 C 10.908 268.000,11.304 268.911,11.607 270.025 C 11.910 271.139,12.303 272.140,12.479 272.249 C 12.656 272.358,12.800 272.887,12.800 273.424 C 12.800 273.961,12.980 274.400,13.200 274.400 C 13.420 274.400,13.600 274.745,13.600 275.167 C 13.600 275.588,13.778 275.993,13.997 276.067 C 14.215 276.140,14.434 276.695,14.484 277.300 C 14.534 277.905,14.715 278.400,14.887 278.400 C 15.059 278.400,15.200 278.760,15.200 279.200 C 15.200 279.640,15.380 280.000,15.600 280.000 C 15.820 280.000,16.000 280.360,16.000 280.800 C 16.000 281.240,16.180 281.600,16.400 281.600 C 16.620 281.600,16.800 281.960,16.800 282.400 C 16.800 282.840,16.980 283.200,17.200 283.200 C 17.420 283.200,17.600 283.639,17.600 284.176 C 17.600 284.713,17.780 285.264,18.000 285.400 C 18.220 285.536,18.400 286.007,18.400 286.447 C 18.400 286.887,18.580 287.136,18.800 287.000 C 19.020 286.864,19.200 287.123,19.200 287.576 C 19.200 288.029,19.380 288.400,19.600 288.400 C 19.820 288.400,20.000 288.634,20.000 288.920 C 20.000 289.656,20.941 291.593,21.300 291.597 C 21.465 291.599,21.600 291.945,21.600 292.367 C 21.600 292.788,21.735 293.193,21.900 293.267 C 22.065 293.340,22.633 294.255,23.163 295.300 C 23.692 296.345,24.277 297.200,24.463 297.200 C 24.648 297.200,24.800 297.560,24.800 298.000 C 24.800 298.440,25.010 298.800,25.267 298.800 C 25.523 298.800,25.617 298.917,25.474 299.059 C 25.203 299.330,26.779 302.502,27.300 302.733 C 27.465 302.807,27.600 303.088,27.600 303.358 C 27.600 303.628,27.915 304.198,28.300 304.625 C 28.685 305.051,29.269 305.940,29.597 306.600 C 29.926 307.260,30.467 308.070,30.800 308.400 C 31.133 308.730,31.660 309.495,31.970 310.100 C 32.281 310.705,32.685 311.200,32.868 311.200 C 33.050 311.200,33.200 311.520,33.200 311.912 C 33.200 312.303,33.560 312.883,34.000 313.200 C 34.440 313.517,34.800 314.057,34.800 314.400 C 34.800 314.743,35.160 315.283,35.600 315.600 C 36.040 315.917,36.400 316.417,36.400 316.712 C 36.400 317.006,36.580 317.136,36.800 317.000 C 37.020 316.864,37.200 317.084,37.200 317.488 C 37.200 317.893,37.560 318.483,38.000 318.800 C 38.440 319.117,38.800 319.707,38.800 320.112 C 38.800 320.516,38.980 320.736,39.200 320.600 C 39.420 320.464,39.600 320.594,39.600 320.888 C 39.600 321.183,39.960 321.683,40.400 322.000 C 40.840 322.317,41.200 322.724,41.200 322.905 C 41.200 323.265,41.416 323.550,43.199 325.542 C 43.859 326.281,44.400 327.041,44.400 327.232 C 44.400 327.423,45.167 328.349,46.105 329.289 C 47.043 330.230,48.255 331.630,48.799 332.400 C 49.560 333.479,54.246 338.269,58.104 341.913 C 58.271 342.071,60.194 344.045,62.376 346.300 C 64.559 348.555,66.502 350.400,66.694 350.400 C 66.886 350.400,68.165 351.480,69.535 352.800 C 70.905 354.120,72.165 355.200,72.335 355.200 C 72.505 355.200,73.331 355.830,74.172 356.600 C 75.013 357.370,75.831 358.000,75.991 358.000 C 76.151 358.000,76.846 358.540,77.537 359.200 C 78.228 359.860,78.985 360.400,79.220 360.400 C 79.455 360.400,79.536 360.580,79.400 360.800 C 79.264 361.020,79.484 361.200,79.888 361.200 C 80.293 361.200,80.883 361.560,81.200 362.000 C 81.517 362.440,81.980 362.800,82.229 362.800 C 82.478 362.800,83.246 363.340,83.937 364.000 C 84.628 364.660,85.425 365.200,85.708 365.200 C 85.991 365.200,86.483 365.560,86.800 366.000 C 87.117 366.440,87.657 366.800,88.000 366.800 C 88.343 366.800,88.883 367.160,89.200 367.600 C 89.517 368.040,90.082 368.400,90.455 368.400 C 90.828 368.400,91.193 368.558,91.267 368.751 C 91.340 368.944,92.570 369.840,94.000 370.743 C 95.430 371.645,96.781 372.522,97.002 372.692 C 98.112 373.542,100.713 374.753,100.941 374.526 C 101.083 374.383,101.200 374.477,101.200 374.733 C 101.200 374.990,101.560 375.200,102.000 375.200 C 102.440 375.200,102.800 375.352,102.800 375.537 C 102.800 375.723,103.655 376.308,104.700 376.837 C 105.745 377.367,106.660 377.935,106.733 378.100 C 106.807 378.265,107.212 378.400,107.633 378.400 C 108.055 378.400,108.400 378.580,108.400 378.800 C 108.400 379.020,108.760 379.200,109.200 379.200 C 109.640 379.200,110.000 379.380,110.000 379.600 C 110.000 379.820,110.360 380.000,110.800 380.000 C 111.240 380.000,111.601 380.135,111.603 380.300 C 111.607 380.706,113.586 381.600,114.480 381.600 C 114.876 381.600,115.200 381.780,115.200 382.000 C 115.200 382.220,115.560 382.400,116.000 382.400 C 116.440 382.400,116.800 382.580,116.800 382.800 C 116.800 383.020,117.160 383.200,117.600 383.200 C 118.040 383.200,118.400 383.380,118.400 383.600 C 118.400 383.820,118.760 384.000,119.200 384.000 C 119.640 384.000,120.000 384.147,120.000 384.328 C 120.000 384.508,120.900 384.900,122.000 385.200 C 123.100 385.500,124.000 385.892,124.000 386.072 C 124.000 386.253,124.360 386.400,124.800 386.400 C 125.240 386.400,125.600 386.580,125.600 386.800 C 125.600 387.020,126.140 387.200,126.800 387.200 C 127.460 387.200,128.000 387.380,128.000 387.600 C 128.000 387.820,128.246 388.000,128.547 388.000 C 128.847 388.000,130.062 388.379,131.247 388.843 C 132.431 389.307,133.760 389.827,134.200 389.999 C 136.046 390.723,139.359 391.600,140.246 391.600 C 140.771 391.600,141.200 391.780,141.200 392.000 C 141.200 392.220,141.819 392.400,142.576 392.400 C 143.333 392.400,144.064 392.580,144.200 392.800 C 144.336 393.020,144.876 393.200,145.400 393.200 C 145.924 393.200,146.464 393.380,146.600 393.600 C 146.736 393.820,147.456 394.000,148.200 394.000 C 148.944 394.000,149.664 394.180,149.800 394.400 C 149.936 394.620,150.667 394.800,151.424 394.800 C 152.181 394.800,152.800 394.980,152.800 395.200 C 152.800 395.420,153.509 395.600,154.376 395.600 C 155.243 395.600,156.064 395.780,156.200 396.000 C 156.336 396.220,157.247 396.400,158.224 396.400 C 159.201 396.400,160.000 396.580,160.000 396.800 C 160.000 397.020,160.990 397.200,162.200 397.200 C 163.410 397.200,164.400 397.380,164.400 397.600 C 164.400 397.820,165.379 398.000,166.576 398.000 C 167.773 398.000,168.864 398.180,169.000 398.400 C 169.136 398.620,170.482 398.800,171.990 398.800 C 173.829 398.800,174.788 398.965,174.900 399.300 C 175.144 400.032,224.856 400.032,225.100 399.300 C 225.212 398.965,226.171 398.800,228.010 398.800 C 229.518 398.800,230.864 398.620,231.000 398.400 C 231.136 398.180,232.227 398.000,233.424 398.000 C 234.621 398.000,235.600 397.820,235.600 397.600 C 235.600 397.380,236.590 397.200,237.800 397.200 C 239.010 397.200,240.000 397.020,240.000 396.800 C 240.000 396.580,240.709 396.400,241.576 396.400 C 242.443 396.400,243.264 396.220,243.400 396.000 C 243.536 395.780,244.346 395.600,245.200 395.600 C 246.054 395.600,246.864 395.420,247.000 395.200 C 247.136 394.980,247.957 394.800,248.824 394.800 C 249.691 394.800,250.400 394.620,250.400 394.400 C 250.400 394.180,251.019 394.000,251.776 394.000 C 252.533 394.000,253.264 393.820,253.400 393.600 C 253.536 393.380,254.076 393.200,254.600 393.200 C 255.124 393.200,255.664 393.020,255.800 392.800 C 255.936 392.580,256.566 392.400,257.200 392.400 C 257.834 392.400,258.464 392.220,258.600 392.000 C 258.736 391.780,259.226 391.600,259.688 391.600 C 260.628 391.600,264.621 390.507,265.695 389.957 C 266.077 389.760,266.752 389.600,267.195 389.600 C 267.638 389.600,268.000 389.453,268.000 389.272 C 268.000 389.092,268.911 388.696,270.025 388.393 C 271.139 388.090,272.140 387.697,272.249 387.521 C 272.358 387.344,272.887 387.200,273.424 387.200 C 273.961 387.200,274.400 387.020,274.400 386.800 C 274.400 386.580,274.760 386.400,275.200 386.400 C 275.640 386.400,276.000 386.220,276.000 386.000 C 276.000 385.780,276.540 385.600,277.200 385.600 C 277.860 385.600,278.400 385.420,278.400 385.200 C 278.400 384.980,278.760 384.800,279.200 384.800 C 279.640 384.800,280.000 384.620,280.000 384.400 C 280.000 384.180,280.360 384.000,280.800 384.000 C 281.240 384.000,281.600 383.820,281.600 383.600 C 281.600 383.380,281.836 383.200,282.125 383.200 C 282.414 383.200,283.395 382.840,284.306 382.400 C 285.216 381.960,286.240 381.600,286.581 381.600 C 286.921 381.600,287.200 381.420,287.200 381.200 C 287.200 380.980,287.470 380.800,287.800 380.800 C 288.130 380.800,288.400 380.620,288.400 380.400 C 288.400 380.180,288.634 380.000,288.920 380.000 C 289.656 380.000,291.593 379.059,291.597 378.700 C 291.599 378.535,291.945 378.400,292.367 378.400 C 292.788 378.400,293.193 378.265,293.267 378.100 C 293.340 377.935,294.255 377.367,295.300 376.837 C 296.345 376.308,297.200 375.723,297.200 375.537 C 297.200 375.352,297.560 375.200,298.000 375.200 C 298.440 375.200,298.800 375.020,298.800 374.800 C 298.800 374.580,298.935 374.432,299.100 374.472 C 299.573 374.586,302.800 373.045,302.800 372.706 C 302.800 372.538,302.993 372.400,303.228 372.400 C 303.463 372.400,304.441 371.860,305.400 371.200 C 306.359 370.540,307.255 370.000,307.390 370.000 C 307.526 370.000,308.090 369.547,308.644 368.992 C 309.198 368.438,309.787 368.069,309.953 368.171 C 310.119 368.273,310.507 368.007,310.815 367.579 C 311.124 367.150,311.657 366.800,312.000 366.800 C 312.343 366.800,312.883 366.440,313.200 366.000 C 313.517 365.560,314.057 365.200,314.400 365.200 C 314.743 365.200,315.283 364.840,315.600 364.400 C 315.917 363.960,316.417 363.600,316.712 363.600 C 317.006 363.600,317.136 363.420,317.000 363.200 C 316.864 362.980,317.084 362.800,317.488 362.800 C 317.893 362.800,318.483 362.440,318.800 362.000 C 319.117 361.560,319.707 361.200,320.112 361.200 C 320.516 361.200,320.736 361.020,320.600 360.800 C 320.464 360.580,320.594 360.400,320.888 360.400 C 321.183 360.400,321.683 360.040,322.000 359.600 C 322.317 359.160,322.724 358.800,322.905 358.800 C 323.265 358.800,323.550 358.584,325.542 356.801 C 326.281 356.141,327.026 355.600,327.200 355.600 C 327.373 355.600,328.743 354.430,330.246 353.000 C 331.748 351.570,333.129 350.400,333.316 350.400 C 333.503 350.400,335.441 348.555,337.624 346.300 C 342.398 341.367,341.367 342.398,346.300 337.624 C 348.555 335.441,350.400 333.503,350.400 333.316 C 350.400 333.129,351.570 331.748,353.000 330.246 C 354.430 328.743,355.600 327.373,355.600 327.200 C 355.600 327.026,356.095 326.329,356.700 325.651 C 358.539 323.588,358.800 323.247,358.800 322.905 C 358.800 322.724,359.160 322.317,359.600 322.000 C 360.040 321.683,360.400 321.183,360.400 320.888 C 360.400 320.594,360.580 320.464,360.800 320.600 C 361.020 320.736,361.200 320.516,361.200 320.112 C 361.200 319.707,361.560 319.117,362.000 318.800 C 362.440 318.483,362.800 317.893,362.800 317.488 C 362.800 317.084,362.980 316.864,363.200 317.000 C 363.420 317.136,363.600 317.006,363.600 316.712 C 363.600 316.417,363.960 315.917,364.400 315.600 C 364.840 315.283,365.200 314.743,365.200 314.400 C 365.200 314.057,365.560 313.517,366.000 313.200 C 366.440 312.883,366.800 312.303,366.800 311.912 C 366.800 311.520,366.950 311.200,367.132 311.200 C 367.315 311.200,367.719 310.705,368.030 310.100 C 368.340 309.495,368.911 308.709,369.297 308.353 C 369.684 307.997,370.000 307.604,370.000 307.480 C 370.000 307.107,372.575 303.011,372.900 302.867 C 373.065 302.793,373.200 302.388,373.200 301.967 C 373.200 301.545,373.368 301.200,373.573 301.200 C 373.953 301.200,374.623 299.646,374.479 299.100 C 374.436 298.935,374.580 298.800,374.800 298.800 C 375.020 298.800,375.200 298.440,375.200 298.000 C 375.200 297.560,375.352 297.200,375.537 297.200 C 375.723 297.200,376.308 296.345,376.837 295.300 C 377.367 294.255,377.935 293.340,378.100 293.267 C 378.265 293.193,378.400 292.788,378.400 292.367 C 378.400 291.945,378.535 291.599,378.700 291.597 C 379.059 291.593,380.000 289.656,380.000 288.920 C 380.000 288.634,380.180 288.400,380.400 288.400 C 380.620 288.400,380.800 288.029,380.800 287.576 C 380.800 287.123,380.950 286.845,381.133 286.958 C 381.316 287.071,381.708 286.272,382.005 285.182 C 382.302 284.092,382.692 283.200,382.872 283.200 C 383.053 283.200,383.200 282.840,383.200 282.400 C 383.200 281.960,383.380 281.600,383.600 281.600 C 383.820 281.600,384.000 281.240,384.000 280.800 C 384.000 280.360,384.147 280.000,384.328 280.000 C 384.508 280.000,384.900 279.100,385.200 278.000 C 385.500 276.900,385.892 276.000,386.072 276.000 C 386.253 276.000,386.400 275.640,386.400 275.200 C 386.400 274.760,386.580 274.400,386.800 274.400 C 387.020 274.400,387.200 273.961,387.200 273.424 C 387.200 272.887,387.344 272.358,387.521 272.249 C 387.697 272.140,388.090 271.139,388.393 270.025 C 388.696 268.911,389.092 268.000,389.272 268.000 C 389.453 268.000,389.600 267.638,389.600 267.195 C 389.600 266.752,389.763 266.077,389.963 265.695 C 390.554 264.565,391.600 260.783,391.600 259.778 C 391.600 259.266,391.780 258.736,392.000 258.600 C 392.220 258.464,392.400 257.834,392.400 257.200 C 392.400 256.566,392.580 255.936,392.800 255.800 C 393.020 255.664,393.200 255.124,393.200 254.600 C 393.200 254.076,393.380 253.536,393.600 253.400 C 393.820 253.264,394.000 252.533,394.000 251.776 C 394.000 251.019,394.180 250.400,394.400 250.400 C 394.620 250.400,394.800 249.691,394.800 248.824 C 394.800 247.957,394.980 247.136,395.200 247.000 C 395.420 246.864,395.600 246.144,395.600 245.400 C 395.600 244.656,395.780 243.936,396.000 243.800 C 396.220 243.664,396.400 242.764,396.400 241.800 C 396.400 240.836,396.580 239.936,396.800 239.800 C 397.020 239.664,397.200 238.663,397.200 237.576 C 397.200 236.489,397.380 235.600,397.600 235.600 C 397.820 235.600,398.000 234.621,398.000 233.424 C 398.000 232.227,398.180 231.136,398.400 231.000 C 398.620 230.864,398.800 229.518,398.800 228.010 C 398.800 226.171,398.965 225.212,399.300 225.100 C 399.693 224.969,399.800 219.591,399.800 200.000 C 399.800 180.409,399.693 175.031,399.300 174.900 C 398.965 174.788,398.800 173.829,398.800 171.990 C 398.800 170.482,398.620 169.136,398.400 169.000 C 398.180 168.864,398.000 167.773,398.000 166.576 C 398.000 165.379,397.820 164.400,397.600 164.400 C 397.380 164.400,397.200 163.410,397.200 162.200 C 397.200 160.990,397.020 160.000,396.800 160.000 C 396.580 160.000,396.400 159.201,396.400 158.224 C 396.400 157.247,396.220 156.336,396.000 156.200 C 395.780 156.064,395.600 155.243,395.600 154.376 C 395.600 153.509,395.420 152.800,395.200 152.800 C 394.980 152.800,394.800 152.080,394.800 151.200 C 394.800 150.320,394.620 149.600,394.400 149.600 C 394.180 149.600,394.000 148.981,394.000 148.224 C 394.000 147.467,393.820 146.736,393.600 146.600 C 393.380 146.464,393.200 145.924,393.200 145.400 C 393.200 144.876,393.020 144.336,392.800 144.200 C 392.580 144.064,392.400 143.333,392.400 142.576 C 392.400 141.819,392.220 141.200,392.000 141.200 C 391.780 141.200,391.600 140.771,391.600 140.246 C 391.600 139.222,390.560 135.447,389.963 134.305 C 389.763 133.923,389.600 133.248,389.600 132.805 C 389.600 132.362,389.453 132.000,389.272 132.000 C 389.092 132.000,388.696 131.089,388.393 129.975 C 388.090 128.861,387.697 127.860,387.521 127.751 C 387.344 127.642,387.200 127.113,387.200 126.576 C 387.200 126.039,387.020 125.600,386.800 125.600 C 386.580 125.600,386.400 125.255,386.400 124.833 C 386.400 124.412,386.222 124.007,386.003 123.933 C 385.785 123.860,385.566 123.305,385.516 122.700 C 385.466 122.095,385.285 121.600,385.113 121.600 C 384.941 121.600,384.800 121.240,384.800 120.800 C 384.800 120.360,384.620 120.000,384.400 120.000 C 384.180 120.000,384.000 119.640,384.000 119.200 C 384.000 118.760,383.820 118.400,383.600 118.400 C 383.380 118.400,383.200 118.040,383.200 117.600 C 383.200 117.160,383.020 116.800,382.800 116.800 C 382.580 116.800,382.400 116.361,382.400 115.824 C 382.400 115.287,382.220 114.736,382.000 114.600 C 381.780 114.464,381.600 113.993,381.600 113.553 C 381.600 113.113,381.420 112.864,381.200 113.000 C 380.972 113.141,380.800 112.796,380.800 112.200 C 380.800 111.604,380.628 111.259,380.400 111.400 C 380.180 111.536,380.000 111.402,380.000 111.103 C 380.000 110.349,379.065 108.407,378.700 108.403 C 378.535 108.401,378.400 108.055,378.400 107.633 C 378.400 107.212,378.265 106.807,378.100 106.733 C 377.935 106.660,377.367 105.745,376.837 104.700 C 376.308 103.655,375.723 102.800,375.537 102.800 C 375.352 102.800,375.200 102.440,375.200 102.000 C 375.200 101.560,375.020 101.200,374.800 101.200 C 374.580 101.200,374.445 101.061,374.500 100.892 C 374.655 100.415,373.121 97.200,372.739 97.200 C 372.553 97.200,372.400 97.010,372.400 96.778 C 372.400 96.269,369.193 91.456,368.728 91.267 C 368.547 91.193,368.400 90.828,368.400 90.455 C 368.400 90.082,368.040 89.517,367.600 89.200 C 367.160 88.883,366.800 88.369,366.800 88.059 C 366.800 87.748,366.484 87.203,366.097 86.847 C 365.711 86.491,365.140 85.705,364.830 85.100 C 364.519 84.495,364.115 84.000,363.932 84.000 C 363.750 84.000,363.600 83.757,363.600 83.459 C 363.600 83.162,363.060 82.354,362.400 81.663 C 361.740 80.972,361.200 80.125,361.200 79.780 C 361.200 79.435,361.020 79.264,360.800 79.400 C 360.580 79.536,360.400 79.406,360.400 79.112 C 360.400 78.817,360.040 78.317,359.600 78.000 C 359.160 77.683,358.800 77.276,358.800 77.095 C 358.800 76.753,358.539 76.412,356.700 74.349 C 356.095 73.671,355.600 72.974,355.600 72.800 C 355.600 72.627,354.430 71.257,353.000 69.754 C 351.570 68.252,350.400 66.871,350.400 66.684 C 350.400 66.497,348.555 64.559,346.300 62.376 C 341.308 57.544,342.254 58.488,338.094 54.195 C 336.172 52.212,333.793 49.962,332.807 49.195 C 331.821 48.428,330.138 46.945,329.067 45.900 C 327.995 44.855,326.949 44.000,326.741 44.000 C 326.534 44.000,325.914 43.550,325.364 43.000 C 324.814 42.450,324.219 42.000,324.041 42.000 C 323.864 42.000,323.154 41.460,322.463 40.800 C 321.772 40.140,321.015 39.600,320.780 39.600 C 320.545 39.600,320.464 39.420,320.600 39.200 C 320.736 38.980,320.565 38.800,320.220 38.800 C 319.875 38.800,319.028 38.260,318.337 37.600 C 317.646 36.940,316.838 36.400,316.541 36.400 C 316.243 36.400,316.000 36.250,316.000 36.068 C 316.000 35.885,315.505 35.481,314.900 35.170 C 314.295 34.860,313.509 34.289,313.153 33.903 C 312.797 33.516,312.252 33.200,311.941 33.200 C 311.631 33.200,311.117 32.840,310.800 32.400 C 310.483 31.960,309.969 31.600,309.659 31.600 C 309.348 31.600,308.803 31.284,308.447 30.897 C 308.091 30.511,307.260 29.926,306.600 29.597 C 305.940 29.269,305.051 28.685,304.625 28.300 C 304.198 27.915,303.628 27.600,303.358 27.600 C 303.088 27.600,302.807 27.465,302.733 27.300 C 302.502 26.779,299.330 25.203,299.059 25.474 C 298.917 25.617,298.800 25.523,298.800 25.267 C 298.800 25.010,298.440 24.800,298.000 24.800 C 297.560 24.800,297.200 24.648,297.200 24.463 C 297.200 24.277,296.345 23.692,295.300 23.163 C 294.255 22.633,293.340 22.065,293.267 21.900 C 293.193 21.735,292.788 21.600,292.367 21.600 C 291.945 21.600,291.599 21.465,291.597 21.300 C 291.593 20.935,289.651 20.000,288.897 20.000 C 288.598 20.000,288.464 19.820,288.600 19.600 C 288.736 19.380,288.477 19.200,288.024 19.200 C 287.571 19.200,287.200 19.020,287.200 18.800 C 287.200 18.580,286.750 18.400,286.200 18.400 C 285.650 18.400,285.200 18.220,285.200 18.000 C 285.200 17.780,284.750 17.600,284.200 17.600 C 283.650 17.600,283.200 17.420,283.200 17.200 C 283.200 16.980,282.840 16.800,282.400 16.800 C 281.960 16.800,281.600 16.620,281.600 16.400 C 281.600 16.180,281.240 16.000,280.800 16.000 C 280.360 16.000,280.000 15.820,280.000 15.600 C 280.000 15.380,279.640 15.200,279.200 15.200 C 278.760 15.200,278.400 15.020,278.400 14.800 C 278.400 14.580,277.860 14.400,277.200 14.400 C 276.540 14.400,276.000 14.220,276.000 14.000 C 276.000 13.780,275.640 13.600,275.200 13.600 C 274.760 13.600,274.400 13.420,274.400 13.200 C 274.400 12.980,273.961 12.800,273.424 12.800 C 272.887 12.800,272.336 12.620,272.200 12.400 C 272.064 12.180,271.685 12.000,271.357 12.000 C 271.029 12.000,270.016 11.640,269.106 11.200 C 268.195 10.760,267.211 10.400,266.919 10.400 C 266.628 10.400,266.077 10.240,265.695 10.043 C 264.609 9.486,260.624 8.400,259.665 8.400 C 259.189 8.400,258.800 8.220,258.800 8.000 C 258.800 7.780,258.170 7.600,257.400 7.600 C 256.630 7.600,256.000 7.420,256.000 7.200 C 256.000 6.980,255.359 6.800,254.576 6.800 C 253.729 6.800,253.253 6.638,253.400 6.400 C 253.549 6.158,253.004 6.000,252.024 6.000 C 251.131 6.000,250.400 5.820,250.400 5.600 C 250.400 5.380,249.680 5.200,248.800 5.200 C 247.920 5.200,247.200 5.020,247.200 4.800 C 247.200 4.580,246.491 4.400,245.624 4.400 C 244.757 4.400,243.936 4.220,243.800 4.000 C 243.664 3.780,242.753 3.600,241.776 3.600 C 240.799 3.600,240.000 3.420,240.000 3.200 C 240.000 2.980,239.100 2.800,238.000 2.800 C 236.900 2.800,236.000 2.620,236.000 2.400 C 236.000 2.174,234.867 2.000,233.400 2.000 C 231.933 2.000,230.800 1.826,230.800 1.600 C 230.800 1.372,229.611 1.200,228.033 1.200 C 226.198 1.200,225.211 1.034,225.103 0.708 C 224.941 0.222,187.291 -0.126,178.300 0.275 M118.600 75.371 C 125.063 76.929,132.054 82.509,134.964 88.430 C 141.067 100.851,136.034 116.718,124.200 122.362 C 119.157 124.768,118.780 124.860,113.000 125.086 C 108.831 125.249,107.882 125.122,104.200 123.913 C 98.062 121.898,91.289 115.602,89.233 110.000 C 88.951 109.230,88.577 108.240,88.404 107.800 C 87.548 105.630,87.200 103.378,87.200 100.000 C 87.200 96.622,87.548 94.370,88.404 92.200 C 88.577 91.760,88.951 90.770,89.233 90.000 C 91.331 84.286,98.389 77.789,104.400 76.039 C 105.390 75.751,106.560 75.361,107.000 75.173 C 107.913 74.782,116.788 74.934,118.600 75.371 M137.600 225.003 L 137.600 312.806 112.500 312.703 L 87.400 312.600 87.297 225.400 C 87.241 177.440,87.280 137.975,87.385 137.700 C 87.534 137.307,92.945 137.200,112.587 137.200 L 137.600 137.200 137.600 225.003 M212.810 148.600 C 212.925 154.760,213.060 159.358,213.110 158.818 C 213.589 153.611,220.789 145.013,227.000 142.230 C 227.880 141.835,229.123 141.262,229.761 140.956 C 230.400 140.650,231.245 140.400,231.638 140.400 C 232.031 140.400,232.452 140.240,232.573 140.044 C 232.694 139.849,233.379 139.588,234.096 139.466 C 234.813 139.344,236.300 139.053,237.400 138.818 C 244.232 137.362,261.094 136.839,267.600 137.880 C 273.467 138.819,277.785 139.951,281.051 141.406 C 285.382 143.334,286.892 144.154,289.431 145.956 C 296.378 150.885,301.911 158.141,305.249 166.700 C 305.442 167.195,305.768 168.005,305.974 168.500 C 306.179 168.995,306.561 170.120,306.823 171.000 C 307.084 171.880,307.456 172.913,307.649 173.295 C 307.842 173.677,308.000 174.431,308.000 174.971 C 308.000 175.511,308.161 176.052,308.358 176.174 C 308.555 176.295,308.813 177.071,308.932 177.897 C 309.051 178.724,309.341 180.300,309.576 181.400 C 312.389 194.559,312.600 200.024,312.600 259.600 L 312.600 312.600 287.509 312.703 L 262.417 312.806 262.267 260.903 C 262.166 226.091,261.974 208.276,261.685 206.800 C 260.891 202.738,260.741 202.207,259.885 200.400 C 257.151 194.634,250.816 189.200,246.828 189.200 C 246.399 189.200,245.936 189.020,245.800 188.800 C 245.664 188.580,244.909 188.400,244.123 188.400 C 243.336 188.400,241.553 188.190,240.160 187.933 C 236.982 187.348,230.391 188.155,226.600 189.595 C 219.505 192.289,215.382 197.316,213.476 205.600 C 213.208 206.764,212.980 225.992,212.831 260.000 L 212.600 312.600 187.500 312.703 L 162.400 312.806 162.400 225.000 L 162.400 137.194 187.500 137.297 L 212.600 137.400 212.810 148.600 " stroke="none" fill="#047cb4" fill-rule="evenodd"></path><path id="path2" d="M107.200 75.212 C 106.781 75.491,107.142 75.533,108.400 75.350 C 110.641 75.025,110.960 74.798,109.167 74.806 C 108.415 74.809,107.530 74.992,107.200 75.212 M114.433 74.945 C 114.525 75.025,115.401 75.192,116.379 75.318 C 117.530 75.465,117.954 75.416,117.579 75.179 C 117.045 74.840,114.058 74.619,114.433 74.945 M128.479 80.755 C 129.733 81.896,131.417 83.588,132.221 84.515 C 133.031 85.448,133.322 85.664,132.873 85.000 C 132.017 83.732,128.352 80.124,127.000 79.217 C 126.560 78.922,127.226 79.614,128.479 80.755 M134.200 87.600 C 134.541 88.260,134.911 88.800,135.021 88.800 C 135.131 88.800,134.941 88.260,134.600 87.600 C 134.259 86.940,133.889 86.400,133.779 86.400 C 133.669 86.400,133.859 86.940,134.200 87.600 M89.400 89.461 C 89.064 90.265,88.882 91.015,88.995 91.128 C 89.108 91.241,89.200 91.235,89.200 91.116 C 89.200 90.996,89.472 90.246,89.805 89.449 C 90.138 88.652,90.321 88.000,90.211 88.000 C 90.101 88.000,89.736 88.658,89.400 89.461 M136.846 94.400 C 136.865 94.730,137.024 95.450,137.200 96.000 L 137.520 97.000 137.554 96.000 C 137.573 95.450,137.413 94.730,137.200 94.400 C 136.855 93.867,136.816 93.867,136.846 94.400 M87.452 95.300 C 87.127 96.512,87.187 104.025,87.528 104.885 C 87.678 105.262,87.800 103.057,87.800 99.985 C 87.800 93.922,87.805 93.984,87.452 95.300 M137.249 103.600 C 137.216 103.930,137.089 104.650,136.967 105.200 C 136.775 106.064,136.807 106.103,137.199 105.488 C 137.448 105.097,137.575 104.377,137.481 103.888 C 137.386 103.400,137.282 103.270,137.249 103.600 M88.800 108.938 C 88.800 109.429,90.485 112.806,90.840 113.025 C 91.030 113.142,90.714 112.285,90.137 111.119 C 89.019 108.864,88.800 108.506,88.800 108.938 M134.200 112.400 C 133.859 113.060,133.669 113.600,133.779 113.600 C 133.889 113.600,134.259 113.060,134.600 112.400 C 134.941 111.740,135.131 111.200,135.021 111.200 C 134.911 111.200,134.541 111.740,134.200 112.400 M129.803 117.745 C 127.825 119.751,126.745 121.003,127.403 120.527 C 128.977 119.390,134.263 113.817,133.549 114.048 C 133.467 114.075,131.781 115.738,129.803 117.745 M107.200 124.788 C 107.530 125.008,108.415 125.191,109.167 125.194 C 110.960 125.202,110.641 124.975,108.400 124.650 C 107.142 124.467,106.781 124.509,107.200 124.788 M115.800 124.800 L 114.200 125.086 115.600 125.137 C 116.370 125.165,117.270 125.013,117.600 124.800 C 118.255 124.377,118.162 124.377,115.800 124.800 M87.385 137.700 C 87.280 137.975,87.241 177.440,87.297 225.400 L 87.400 312.600 112.500 312.605 L 137.600 312.609 112.600 312.502 L 87.600 312.394 87.600 225.000 L 87.600 137.606 112.700 137.500 L 137.800 137.394 112.687 137.297 C 92.894 137.221,87.535 137.306,87.385 137.700 M187.300 137.500 L 212.400 137.606 212.406 148.503 C 212.409 154.496,212.544 159.608,212.706 159.863 C 213.015 160.349,212.915 138.565,212.605 137.700 C 212.463 137.306,207.111 137.221,187.313 137.297 L 162.200 137.394 187.300 137.500 M245.400 137.557 C 244.520 137.691,248.917 137.800,255.171 137.800 C 261.425 137.800,266.015 137.686,265.371 137.547 C 263.880 137.226,247.527 137.233,245.400 137.557 M239.400 138.396 C 238.902 138.608,239.431 138.651,240.800 138.512 C 242.010 138.389,243.075 138.223,243.167 138.144 C 243.511 137.847,240.167 138.070,239.400 138.396 M267.233 138.147 C 267.325 138.228,268.279 138.388,269.354 138.504 C 270.549 138.632,271.093 138.578,270.754 138.363 C 270.235 138.035,266.871 137.828,267.233 138.147 M235.600 139.206 C 235.178 139.482,235.415 139.523,236.400 139.342 C 238.125 139.025,238.451 138.798,237.167 138.806 C 236.635 138.809,235.930 138.989,235.600 139.206 M272.033 138.943 C 272.125 139.021,272.830 139.201,273.600 139.342 C 274.585 139.523,274.822 139.482,274.400 139.206 C 273.858 138.850,271.637 138.603,272.033 138.943 M232.600 140.000 C 232.308 140.473,232.699 140.473,233.800 140.000 C 234.571 139.669,234.569 139.655,233.724 139.628 C 233.242 139.613,232.736 139.780,232.600 140.000 M218.940 148.142 C 217.138 150.133,215.308 152.800,215.745 152.800 C 215.849 152.800,216.349 152.125,216.855 151.300 C 217.361 150.475,218.570 148.945,219.542 147.900 C 220.514 146.855,221.213 146.000,221.095 146.000 C 220.977 146.000,220.007 146.964,218.940 148.142 M289.600 146.118 C 289.600 146.220,290.447 146.997,291.481 147.845 C 292.516 148.693,293.234 149.178,293.076 148.923 C 292.740 148.379,289.600 145.845,289.600 146.118 M296.000 151.864 C 296.000 152.082,296.495 152.697,297.100 153.230 L 298.200 154.200 297.200 153.000 C 296.650 152.340,296.155 151.725,296.100 151.633 C 296.045 151.542,296.000 151.645,296.000 151.864 M213.400 157.600 C 213.250 158.073,213.217 158.550,213.327 158.660 C 213.437 158.770,213.650 158.473,213.800 158.000 C 213.950 157.527,213.983 157.050,213.873 156.940 C 213.763 156.830,213.550 157.127,213.400 157.600 M308.028 176.276 C 308.118 177.315,308.744 178.196,308.772 177.324 C 308.787 176.842,308.620 176.336,308.400 176.200 C 308.180 176.064,308.013 176.098,308.028 176.276 M309.058 180.400 C 309.375 182.125,309.602 182.451,309.594 181.167 C 309.591 180.635,309.411 179.930,309.194 179.600 C 308.918 179.178,308.877 179.415,309.058 180.400 M309.873 184.400 C 310.004 185.390,310.176 186.275,310.256 186.367 C 310.557 186.714,310.328 184.164,309.990 183.400 C 309.753 182.866,309.714 183.198,309.873 184.400 M231.800 188.000 L 230.600 188.305 231.800 188.305 C 232.460 188.305,233.540 188.168,234.200 188.000 L 235.400 187.695 234.200 187.695 C 233.540 187.695,232.460 187.832,231.800 188.000 M240.600 188.000 C 241.260 188.168,242.340 188.305,243.000 188.305 L 244.200 188.305 243.000 188.000 C 242.340 187.832,241.260 187.695,240.600 187.695 L 239.400 187.695 240.600 188.000 M310.693 189.800 C 310.813 191.120,310.976 192.275,311.055 192.367 C 311.351 192.707,311.131 188.970,310.810 188.200 C 310.608 187.717,310.562 188.351,310.693 189.800 M251.600 190.924 C 251.600 191.017,252.365 191.598,253.300 192.215 C 254.235 192.832,254.789 193.080,254.531 192.768 C 254.034 192.167,251.600 190.636,251.600 190.924 M218.961 194.100 C 217.502 195.645,215.664 197.955,216.653 197.000 C 217.718 195.972,220.890 192.400,220.738 192.400 C 220.644 192.400,219.844 193.165,218.961 194.100 M311.512 197.600 C 311.621 199.690,311.775 201.475,311.855 201.567 C 312.121 201.872,311.910 196.219,311.610 195.000 C 311.448 194.340,311.404 195.510,311.512 197.600 M257.785 196.700 C 258.402 197.635,258.983 198.400,259.076 198.400 C 259.364 198.400,257.833 195.966,257.232 195.469 C 256.920 195.211,257.168 195.765,257.785 196.700 M214.671 200.500 C 214.060 201.971,213.434 204.301,213.731 203.999 C 214.023 203.702,215.566 199.200,215.375 199.200 C 215.285 199.200,214.968 199.785,214.671 200.500 M260.812 203.200 C 260.812 203.530,260.987 204.070,261.200 204.400 C 261.545 204.933,261.588 204.933,261.588 204.400 C 261.588 204.070,261.413 203.530,261.200 203.200 C 260.855 202.667,260.812 202.667,260.812 203.200 M312.114 205.000 C 312.117 206.100,312.195 206.503,312.287 205.895 C 312.379 205.286,312.377 204.386,312.282 203.895 C 312.187 203.403,312.111 203.900,312.114 205.000 M213.033 206.433 C 212.883 207.566,212.841 208.574,212.939 208.672 C 213.037 208.771,213.245 207.928,213.400 206.800 C 213.555 205.672,213.598 204.664,213.494 204.561 C 213.391 204.458,213.184 205.300,213.033 206.433 M261.670 206.800 C 261.657 207.350,261.795 208.520,261.977 209.400 L 262.308 211.000 262.307 209.600 C 262.305 207.835,261.709 205.212,261.670 206.800 M312.499 259.697 L 312.400 312.394 287.300 312.500 L 262.200 312.606 287.313 312.703 C 307.106 312.779,312.465 312.694,312.615 312.300 C 312.720 312.025,312.759 288.220,312.701 259.400 L 312.597 207.000 312.499 259.697 M212.498 261.297 L 212.400 312.394 187.300 312.500 L 162.200 312.606 187.313 312.703 C 207.106 312.779,212.465 312.694,212.615 312.300 C 212.720 312.025,212.759 288.940,212.701 261.000 L 212.597 210.200 212.498 261.297 " stroke="none" fill="#5facd0" fill-rule="evenodd"></path><path id="path3" d="M107.200 75.600 C 106.408 75.854,106.367 75.920,107.000 75.920 C 107.440 75.920,108.250 75.776,108.800 75.600 C 109.592 75.346,109.633 75.280,109.000 75.280 C 108.560 75.280,107.750 75.424,107.200 75.600 M116.200 75.581 C 116.968 75.929,119.110 76.156,118.767 75.853 C 118.675 75.772,117.880 75.596,117.000 75.462 C 115.885 75.293,115.642 75.329,116.200 75.581 M97.295 80.192 C 94.629 82.196,93.647 83.200,94.351 83.200 C 94.598 83.200,94.800 83.042,94.800 82.849 C 94.800 82.655,95.835 81.720,97.100 80.770 C 99.939 78.638,100.221 78.400,99.920 78.400 C 99.787 78.400,98.606 79.207,97.295 80.192 M129.800 82.400 C 130.883 83.500,131.860 84.400,131.970 84.400 C 132.080 84.400,131.283 83.500,130.200 82.400 C 129.117 81.300,128.140 80.400,128.030 80.400 C 127.920 80.400,128.717 81.300,129.800 82.400 M134.814 89.254 C 134.806 89.394,135.063 90.114,135.384 90.854 C 135.706 91.594,135.969 91.930,135.970 91.600 C 135.972 91.024,134.843 88.734,134.814 89.254 M136.244 93.400 C 136.573 94.871,136.802 95.190,136.794 94.167 C 136.791 93.745,136.605 93.130,136.382 92.800 C 136.085 92.362,136.048 92.524,136.244 93.400 M87.822 95.822 C 87.672 96.625,87.628 97.362,87.726 97.460 C 87.824 97.557,88.027 96.981,88.178 96.178 C 88.328 95.375,88.372 94.638,88.274 94.540 C 88.176 94.443,87.973 95.019,87.822 95.822 M137.334 100.000 C 137.334 101.650,137.405 102.325,137.491 101.500 C 137.578 100.675,137.578 99.325,137.491 98.500 C 137.405 97.675,137.334 98.350,137.334 100.000 M87.680 103.000 C 87.680 103.440,87.824 104.250,88.000 104.800 C 88.254 105.592,88.320 105.633,88.320 105.000 C 88.320 104.560,88.176 103.750,88.000 103.200 C 87.746 102.408,87.680 102.367,87.680 103.000 M136.446 105.667 C 136.421 106.034,136.296 106.664,136.170 107.067 C 135.952 107.762,135.963 107.763,136.397 107.087 C 136.648 106.696,136.773 106.066,136.673 105.687 C 136.511 105.068,136.488 105.066,136.446 105.667 M135.515 108.610 C 135.392 109.045,135.169 109.760,135.020 110.200 C 134.871 110.640,135.042 110.494,135.400 109.876 C 135.758 109.258,135.981 108.542,135.895 108.286 C 135.810 108.030,135.639 108.176,135.515 108.610 M93.397 116.001 C 95.293 118.218,95.320 118.242,94.886 117.400 C 94.659 116.960,93.962 116.151,93.337 115.601 L 92.200 114.603 93.397 116.001 M129.200 118.091 C 127.770 119.441,127.140 120.168,127.800 119.706 C 128.961 118.894,132.348 115.582,131.981 115.618 C 131.882 115.627,130.630 116.740,129.200 118.091 M96.482 119.021 C 97.077 119.673,98.157 120.528,98.882 120.921 C 100.151 121.608,100.163 121.608,99.209 120.917 C 98.665 120.523,97.585 119.668,96.809 119.018 L 95.400 117.836 96.482 119.021 M116.200 124.419 C 115.642 124.671,115.885 124.707,117.000 124.538 C 117.880 124.404,118.675 124.228,118.767 124.147 C 119.110 123.844,116.968 124.071,116.200 124.419 M137.396 225.000 C 137.396 273.180,137.443 292.949,137.500 268.932 C 137.557 244.915,137.557 205.495,137.500 181.332 C 137.443 157.169,137.396 176.820,137.396 225.000 M162.596 225.000 C 162.596 273.180,162.643 292.949,162.700 268.932 C 162.757 244.915,162.757 205.495,162.700 181.332 C 162.643 157.169,162.596 176.820,162.596 225.000 M245.800 138.000 C 243.891 138.262,243.872 138.276,245.400 138.302 C 246.280 138.317,247.900 138.190,249.000 138.018 C 251.699 137.598,248.850 137.582,245.800 138.000 M262.400 138.020 C 263.390 138.197,264.830 138.332,265.600 138.320 C 266.897 138.301,266.867 138.276,265.200 137.980 C 264.210 137.803,262.770 137.668,262.000 137.680 C 260.703 137.699,260.733 137.724,262.400 138.020 M239.400 138.800 C 238.322 139.074,238.302 139.106,239.200 139.113 C 239.750 139.117,240.650 138.976,241.200 138.800 C 242.544 138.369,241.092 138.369,239.400 138.800 M269.400 138.800 C 269.840 138.989,270.560 139.138,271.000 139.132 C 271.643 139.123,271.604 139.057,270.800 138.800 C 269.432 138.362,268.381 138.362,269.400 138.800 M235.600 139.600 C 234.776 139.864,234.741 139.926,235.400 139.954 C 235.840 139.973,236.470 139.813,236.800 139.600 C 237.501 139.147,237.014 139.147,235.600 139.600 M273.200 139.582 C 273.530 139.805,274.145 139.991,274.567 139.994 C 275.590 140.002,275.271 139.773,273.800 139.444 C 272.924 139.248,272.762 139.285,273.200 139.582 M285.200 144.021 C 286.242 144.730,288.000 145.628,288.000 145.450 C 288.000 145.228,285.239 143.598,284.877 143.606 C 284.725 143.609,284.870 143.796,285.200 144.021 M292.487 149.005 C 293.304 149.860,294.038 150.479,294.117 150.380 C 294.197 150.281,293.528 149.581,292.631 148.825 L 291.000 147.450 292.487 149.005 M295.601 152.196 C 296.370 153.073,297.045 153.868,297.100 153.962 C 297.155 154.056,297.287 154.047,297.393 153.941 C 297.499 153.835,296.824 153.040,295.893 152.174 L 294.201 150.600 295.601 152.196 M216.200 152.400 C 215.859 153.060,215.669 153.600,215.779 153.600 C 215.889 153.600,216.259 153.060,216.600 152.400 C 216.941 151.740,217.131 151.200,217.021 151.200 C 216.911 151.200,216.541 151.740,216.200 152.400 M298.575 155.732 C 299.191 156.539,299.776 157.200,299.875 157.200 C 300.153 157.200,298.421 154.860,297.909 154.544 C 297.659 154.389,297.959 154.924,298.575 155.732 M214.465 155.817 C 214.209 156.378,214.007 157.054,214.016 157.319 C 214.024 157.583,214.297 157.188,214.622 156.439 C 215.305 154.865,215.161 154.290,214.465 155.817 M300.600 158.800 C 300.941 159.460,301.311 160.000,301.421 160.000 C 301.531 160.000,301.341 159.460,301.000 158.800 C 300.659 158.140,300.289 157.600,300.179 157.600 C 300.069 157.600,300.259 158.140,300.600 158.800 M213.449 158.615 C 213.312 158.973,213.215 159.566,213.234 159.933 C 213.253 160.300,213.427 160.069,213.621 159.420 C 213.998 158.158,213.865 157.533,213.449 158.615 M302.278 161.795 C 302.644 162.562,303.014 163.119,303.101 163.032 C 303.284 162.849,302.070 160.400,301.796 160.400 C 301.695 160.400,301.912 161.028,302.278 161.795 M306.806 173.033 C 306.809 173.455,306.995 174.070,307.218 174.400 C 307.515 174.838,307.552 174.676,307.356 173.800 C 307.027 172.329,306.798 172.010,306.806 173.033 M307.606 175.833 C 307.609 176.255,307.795 176.870,308.018 177.200 C 308.315 177.638,308.352 177.476,308.156 176.600 C 307.827 175.129,307.598 174.810,307.606 175.833 M308.406 179.233 C 308.409 179.765,308.589 180.470,308.806 180.800 C 309.082 181.222,309.123 180.985,308.942 180.000 C 308.625 178.275,308.398 177.949,308.406 179.233 M309.228 183.233 C 309.244 183.765,309.419 184.560,309.619 185.000 C 309.871 185.558,309.907 185.315,309.738 184.200 C 309.455 182.343,309.187 181.836,309.228 183.233 M235.315 187.496 C 236.588 187.576,238.568 187.575,239.715 187.494 C 240.862 187.414,239.820 187.349,237.400 187.350 C 234.980 187.351,234.042 187.416,235.315 187.496 M310.087 188.000 C 310.083 188.550,310.224 189.450,310.400 190.000 C 310.831 191.344,310.831 189.892,310.400 188.200 C 310.126 187.122,310.094 187.102,310.087 188.000 M244.433 188.143 C 244.525 188.221,245.230 188.401,246.000 188.542 C 246.985 188.723,247.222 188.682,246.800 188.406 C 246.258 188.050,244.037 187.803,244.433 188.143 M247.633 188.935 C 248.019 189.247,251.200 190.377,251.200 190.202 C 251.200 189.963,248.451 188.800,247.884 188.800 C 247.655 188.800,247.542 188.861,247.633 188.935 M253.927 192.200 C 254.581 192.750,255.238 193.200,255.388 193.200 C 255.539 193.200,255.127 192.750,254.473 192.200 C 253.819 191.650,253.162 191.200,253.012 191.200 C 252.861 191.200,253.273 191.650,253.927 192.200 M218.520 194.111 C 217.422 195.271,216.311 196.666,216.050 197.211 L 215.577 198.200 216.285 197.200 C 216.674 196.650,217.876 195.255,218.955 194.100 C 220.033 192.945,220.826 192.000,220.716 192.000 C 220.606 192.000,219.618 192.950,218.520 194.111 M310.873 194.600 C 310.858 195.260,310.995 196.520,311.177 197.400 C 311.613 199.506,311.650 197.614,311.220 195.200 C 310.980 193.850,310.893 193.700,310.873 194.600 M260.313 200.619 C 260.684 201.620,261.039 202.282,261.103 202.091 C 261.231 201.706,260.093 198.800,259.814 198.800 C 259.717 198.800,259.942 199.619,260.313 200.619 M213.400 202.800 C 213.250 203.273,213.217 203.750,213.327 203.860 C 213.437 203.970,213.650 203.673,213.800 203.200 C 213.950 202.727,213.983 202.250,213.873 202.140 C 213.763 202.030,213.550 202.327,213.400 202.800 M261.458 204.000 C 261.775 205.725,262.002 206.051,261.994 204.767 C 261.991 204.235,261.811 203.530,261.594 203.200 C 261.318 202.778,261.277 203.015,261.458 204.000 M311.707 205.000 C 311.697 206.320,311.820 209.110,311.980 211.200 C 312.255 214.799,312.272 214.852,312.296 212.200 C 312.309 210.660,312.186 207.870,312.022 206.000 C 311.760 203.007,311.722 202.887,311.707 205.000 M212.656 206.084 C 212.521 206.588,212.428 207.450,212.449 208.000 C 212.472 208.589,212.631 208.271,212.836 207.225 C 213.203 205.352,213.073 204.527,212.656 206.084 M262.594 260.400 C 262.594 289.110,262.642 300.855,262.700 286.500 C 262.758 272.145,262.758 248.655,262.700 234.300 C 262.642 219.945,262.594 231.690,262.594 260.400 " stroke="none" fill="#84bcdc" fill-rule="evenodd"></path><path id="path4" d="M111.300 75.087 C 111.905 75.178,112.895 75.178,113.500 75.087 C 114.105 74.995,113.610 74.920,112.400 74.920 C 111.190 74.920,110.695 74.995,111.300 75.087 M111.300 125.087 C 111.905 125.178,112.895 125.178,113.500 125.087 C 114.105 124.995,113.610 124.920,112.400 124.920 C 111.190 124.920,110.695 124.995,111.300 125.087 " stroke="none" fill="#7cbcdc" fill-rule="evenodd"></path></g></svg>